# xmcd
#
# Track frame offsets:
#	150
#	10860
#	20715
#	32513
#	42510
#	49545
#	57075
#	68002
#	78033
#	90408
#	101530
#	111779
#	123156
#	131833
#	142453
#	154134
#	166674
#	182311
#	195046
#	206753
#	217043
#	231465
#	244020
#	255892
#	266676
#	277672
#	287384
#	300606
#	307641
#	315823
#
# Disc length: 4371 seconds
#
# Revision: 0
# Processed by: cddbd v1.4PL0 Copyright (c) Steve Scherf et al.
# Submitted via: EasyCDDAExtractor 4.6.9.1
#
DISCID=7e11111e
DTITLE=Michel Martel&Larry Robichaud - Souvenir
DYEAR=1900
DGENRE=
TTITLE0=A La Porte De Mon Coeur
TTITLE1=Je Veut T'Oublier
TTITLE2=Jour De Tristesse
TTITLE3=Mademoiselle Moi
TTITLE4=Notre Anneau D'or
TTITLE5=Rien Que Pour Toi
TTITLE6=Rose De Mon Coeur
TTITLE7=Seul Dans La Ville
TTITLE8=Vivre Avec Toi
TTITLE9=Chante Avec Moi
TTITLE10=C'etait L'autemne Passer
TTITLE11=L'amour Sans La Connaitre
TTITLE12=Le Jour Du Retour
TTITLE13=Mon Arriver A Laval
TTITLE14=Mon Coeur Est Comme Un Train
TTITLE15=Priere D'Une mere
TTITLE16=Que La Lune Est Belle Ce Soir
TTITLE17=Sherrif Homme De Loi
TTITLE18=Souvenir D'enfance
TTITLE19=Tout Ce Beau Temp
TTITLE20=Amour Maternel
TTITLE21=Combien Faut Il De Larme
TTITLE22=Dans Tes Bras
TTITLE23=Hello Les Amis
TTITLE24=Hommage A Mon Oncle
TTITLE25=Hotel De Province
TTITLE26=Laisse Moi Partir
TTITLE27=Mon Papa C'est Mon Ami
TTITLE28=Quand Nos Coeurs Seront Unis
TTITLE29=Sois Fidele Et Sincere
EXTD=
EXTT0=
EXTT1=
EXTT2=
EXTT3=
EXTT4=
EXTT5=
EXTT6=
EXTT7=
EXTT8=
EXTT9=
EXTT10=
EXTT11=
EXTT12=
EXTT13=
EXTT14=
EXTT15=
EXTT16=
EXTT17=
EXTT18=
EXTT19=
EXTT20=
EXTT21=
EXTT22=
EXTT23=
EXTT24=
EXTT25=
EXTT26=
EXTT27=
EXTT28=
EXTT29=
PLAYORDER=
